HIERARCHY
ROOT Hips
{
    OFFSET 0.000000 97.120003 0.000000
    CHANNELS 6 Xposition Yposition Zposition Yrotation Xrotation Zrotation
    JOINT RightUpLeg
    {
        OFFSET -11.000000 -0.000000 0.000000
        CHANNELS 3 Yrotation Xrotation Zrotation
        JOINT RightLeg
        {
            OFFSET 0.000000 -45.062000 0.000000
            CHANNELS 3 Yrotation Xrotation Zrotation
            JOINT RightFoot
            {
                OFFSET 0.000000 -42.057999 0.000000
                CHANNELS 3 Yrotation Xrotation Zrotation
                End Site
                {
                    OFFSET 0.000000 -10.000000 15.120000
                }
            }
        }
    }
    JOINT LeftUpLeg
    {
        OFFSET 11.000000 -0.000000 0.000000
        CHANNELS 3 Yrotation Xrotation Zrotation
        JOINT LeftLeg
        {
            OFFSET 0.000000 -45.062000 0.000000
            CHANNELS 3 Yrotation Xrotation Zrotation
            JOINT LeftFoot
            {
                OFFSET 0.000000 -42.057999 0.000000
                CHANNELS 3 Yrotation Xrotation Zrotation
                End Site
                {
                    OFFSET 0.000000 -10.000000 15.120000
                }
            }
        }
    }
    JOINT Spine
    {
        OFFSET 0.000000 8.120000 0.000000
        CHANNELS 3 Yrotation Xrotation Zrotation
        JOINT Spine1
        {
            OFFSET 0.000000 17.980000 0.000000
            CHANNELS 3 Yrotation Xrotation Zrotation
            JOINT Spine2
            {
                OFFSET 0.000000 12.760000 0.000000
                CHANNELS 3 Yrotation Xrotation Zrotation
                JOINT Neck
                {
                    OFFSET 0.000000 19.139999 0.000000
                    CHANNELS 3 Yrotation Xrotation Zrotation
                    JOINT Neck1
                    {
                        OFFSET 0.000000 4.250000 0.000000
                        CHANNELS 3 Yrotation Xrotation Zrotation
                        JOINT Head
                        {
                            OFFSET 0.000000 4.250000 0.000000
                            CHANNELS 3 Yrotation Xrotation Zrotation
                            End Site
                            {
                                OFFSET 0.000000 19.120001 0.000000
                            }
                        }
                    }
                }
                JOINT RightShoulder
                {
                    OFFSET -2.900000 13.340000 0.000000
                    CHANNELS 3 Yrotation Xrotation Zrotation
                    JOINT RightArm
                    {
                        OFFSET -16.100000 0.000000 0.000000
                        CHANNELS 3 Yrotation Xrotation Zrotation
                        JOINT RightForeArm
                        {
                            OFFSET -28.000000 0.000000 0.000000
                            CHANNELS 3 Yrotation Xrotation Zrotation
                            JOINT RightHand
                            {
                                OFFSET -26.000000 0.000000 0.000000
                                CHANNELS 3 Yrotation Xrotation Zrotation
                                JOINT RightHandThumb1
                                {
                                    OFFSET -1.937000 -0.484000 2.518000
                                    CHANNELS 3 Yrotation Xrotation Zrotation
                                    JOINT RightHandThumb2
                                    {
                                        OFFSET -3.872000 0.000000 0.000000
                                        CHANNELS 3 Yrotation Xrotation Zrotation
                                        JOINT RightHandThumb3
                                        {
                                            OFFSET -2.690000 0.000000 0.000000
                                            CHANNELS 3 Yrotation Xrotation Zrotation
                                            End Site
                                            {
                                                OFFSET -2.537000 0.000000 0.000000
                                            }
                                        }
                                    }
                                }
                                JOINT RightInHandIndex
                                {
                                    OFFSET -3.389000 0.535000 2.080000
                                    CHANNELS 3 Yrotation Xrotation Zrotation
                                    JOINT RightHandIndex1
                                    {
                                        OFFSET -5.485000 -0.096000 1.051000
                                        CHANNELS 3 Yrotation Xrotation Zrotation
                                        JOINT RightHandIndex2
                                        {
                                            OFFSET -3.806000 0.000000 0.000000
                                            CHANNELS 3 Yrotation Xrotation Zrotation
                                            JOINT RightHandIndex3
                                            {
                                                OFFSET -2.158000 0.000000 0.000000
                                                CHANNELS 3 Yrotation Xrotation Zrotation
                                                End Site
                                                {
                                                    OFFSET -1.898000 0.000000 0.000000
                                                }
                                            }
                                        }
                                    }
                                }
                                JOINT RightInHandMiddle
                                {
                                    OFFSET -3.556000 0.544000 0.796000
                                    CHANNELS 3 Yrotation Xrotation Zrotation
                                    JOINT RightHandMiddle1
                                    {
                                        OFFSET -5.441000 -0.088000 0.330000
                                        CHANNELS 3 Yrotation Xrotation Zrotation
                                        JOINT RightHandMiddle2
                                        {
                                            OFFSET -4.153000 0.000000 0.000000
                                            CHANNELS 3 Yrotation Xrotation Zrotation
                                            JOINT RightHandMiddle3
                                            {
                                                OFFSET -2.603000 0.000000 0.000000
                                                CHANNELS 3 Yrotation Xrotation Zrotation
                                                End Site
                                                {
                                                    OFFSET -2.076000 0.000000 0.000000
                                                }
                                            }
                                        }
                                    }
                                }
                                JOINT RightInHandRing
                                {
                                    OFFSET -3.539000 0.566000 -0.136000
                                    CHANNELS 3 Yrotation Xrotation Zrotation
                                    JOINT RightHandRing1
                                    {
                                        OFFSET -4.873000 -0.023000 -0.504000
                                        CHANNELS 3 Yrotation Xrotation Zrotation
                                        JOINT RightHandRing2
                                        {
                                            OFFSET -3.619000 0.000000 0.000000
                                            CHANNELS 3 Yrotation Xrotation Zrotation
                                            JOINT RightHandRing3
                                            {
                                                OFFSET -2.511000 0.000000 0.000000
                                                CHANNELS 3 Yrotation Xrotation Zrotation
                                                End Site
                                                {
                                                    OFFSET -1.952000 0.000000 0.000000
                                                }
                                            }
                                        }
                                    }
                                }
                                JOINT RightInHandPinky
                                {
                                    OFFSET -3.324000 0.494000 -1.264000
                                    CHANNELS 3 Yrotation Xrotation Zrotation
                                    JOINT RightHandPinky1
                                    {
                                        OFFSET -4.354000 -0.023000 -1.147000
                                        CHANNELS 3 Yrotation Xrotation Zrotation
                                        JOINT RightHandPinky2
                                        {
                                            OFFSET -2.898000 0.000000 0.000000
                                            CHANNELS 3 Yrotation Xrotation Zrotation
                                            JOINT RightHandPinky3
                                            {
                                                OFFSET -1.831000 0.000000 0.000000
                                                CHANNELS 3 Yrotation Xrotation Zrotation
                                                End Site
                                                {
                                                    OFFSET -1.730000 0.000000 0.000000
                                                }
                                            }
                                        }
                                    }
                                }
                            }
                        }
                    }
                }
                JOINT LeftShoulder
                {
                    OFFSET 2.900000 13.340000 0.000000
                    CHANNELS 3 Yrotation Xrotation Zrotation
                    JOINT LeftArm
                    {
                        OFFSET 16.100000 0.000000 0.000000
                        CHANNELS 3 Yrotation Xrotation Zrotation
                        JOINT LeftForeArm
                        {
                            OFFSET 28.000000 0.000000 0.000000
                            CHANNELS 3 Yrotation Xrotation Zrotation
                            JOINT LeftHand
                            {
                                OFFSET 26.000000 0.000000 0.000000
                                CHANNELS 3 Yrotation Xrotation Zrotation
                                JOINT LeftHandThumb1
                                {
                                    OFFSET 1.937000 -0.484000 2.518000
                                    CHANNELS 3 Yrotation Xrotation Zrotation
                                    JOINT LeftHandThumb2
                                    {
                                        OFFSET 3.872000 0.000000 0.000000
                                        CHANNELS 3 Yrotation Xrotation Zrotation
                                        JOINT LeftHandThumb3
                                        {
                                            OFFSET 2.690000 0.000000 0.000000
                                            CHANNELS 3 Yrotation Xrotation Zrotation
                                            End Site
                                            {
                                                OFFSET 2.537000 0.000000 0.000000
                                            }
                                        }
                                    }
                                }
                                JOINT LeftInHandIndex
                                {
                                    OFFSET 3.389000 0.535000 2.080000
                                    CHANNELS 3 Yrotation Xrotation Zrotation
                                    JOINT LeftHandIndex1
                                    {
                                        OFFSET 5.485000 -0.096000 1.051000
                                        CHANNELS 3 Yrotation Xrotation Zrotation
                                        JOINT LeftHandIndex2
                                        {
                                            OFFSET 3.806000 0.000000 0.000000
                                            CHANNELS 3 Yrotation Xrotation Zrotation
                                            JOINT LeftHandIndex3
                                            {
                                                OFFSET 2.158000 0.000000 0.000000
                                                CHANNELS 3 Yrotation Xrotation Zrotation
                                                End Site
                                                {
                                                    OFFSET 1.898000 0.000000 0.000000
                                                }
                                            }
                                        }
                                    }
                                }
                                JOINT LeftInHandMiddle
                                {
                                    OFFSET 3.556000 0.544000 0.796000
                                    CHANNELS 3 Yrotation Xrotation Zrotation
                                    JOINT LeftHandMiddle1
                                    {
                                        OFFSET 5.441000 -0.088000 0.330000
                                        CHANNELS 3 Yrotation Xrotation Zrotation
                                        JOINT LeftHandMiddle2
                                        {
                                            OFFSET 4.153000 0.000000 0.000000
                                            CHANNELS 3 Yrotation Xrotation Zrotation
                                            JOINT LeftHandMiddle3
                                            {
                                                OFFSET 2.603000 0.000000 0.000000
                                                CHANNELS 3 Yrotation Xrotation Zrotation
                                                End Site
                                                {
                                                    OFFSET 2.076000 0.000000 0.000000
                                                }
                                            }
                                        }
                                    }
                                }
                                JOINT LeftInHandRing
                                {
                                    OFFSET 3.539000 0.566000 -0.136000
                                    CHANNELS 3 Yrotation Xrotation Zrotation
                                    JOINT LeftHandRing1
                                    {
                                        OFFSET 4.873000 -0.023000 -0.504000
                                        CHANNELS 3 Yrotation Xrotation Zrotation
                                        JOINT LeftHandRing2
                                        {
                                            OFFSET 3.619000 0.000000 0.000000
                                            CHANNELS 3 Yrotation Xrotation Zrotation
                                            JOINT LeftHandRing3
                                            {
                                                OFFSET 2.511000 0.000000 0.000000
                                                CHANNELS 3 Yrotation Xrotation Zrotation
                                                End Site
                                                {
                                                    OFFSET 1.952000 0.000000 0.000000
                                                }
                                            }
                                        }
                                    }
                                }
                                JOINT LeftInHandPinky
                                {
                                    OFFSET 3.324000 0.494000 -1.264000
                                    CHANNELS 3 Yrotation Xrotation Zrotation
                                    JOINT LeftHandPinky1
                                    {
                                        OFFSET 4.354000 -0.023000 -1.147000
                                        CHANNELS 3 Yrotation Xrotation Zrotation
                                        JOINT LeftHandPinky2
                                        {
                                            OFFSET 2.898000 0.000000 0.000000
                                            CHANNELS 3 Yrotation Xrotation Zrotation
                                            JOINT LeftHandPinky3
                                            {
                                                OFFSET 1.831000 0.000000 0.000000
                                                CHANNELS 3 Yrotation Xrotation Zrotation
                                                End Site
                                                {
                                                    OFFSET 1.730000 0.000000 0.000000
                                                }
                                            }
                                        }
                                    }
                                }
                            }
                        }
                    }
                }
            }
        }
    }
}
MOTION
Frames: 4
Frame Time: 0.011111
0.000000 97.119995 0.000000 0.000000 0.000000 0.000000 0.000000 0.000000 0.000000 0.000000 0.000000 0.000000 0.000000 0.000000 0.000000 0.000000 0.000000 0.000000 0.000000 0.000000 0.000000 0.000000 0.000000 0.000000 0.000000 0.000000 0.000000 0.000000 0.000000 0.000000 0.000000 0.000000 0.000000 0.000000 0.000000 0.000000 0.000000 0.000000 0.000000 0.000000 0.000000 0.000000 0.000000 0.000000 0.000000 0.000000 0.000000 0.000000 0.000000 0.000000 0.000000 0.000000 0.000000 0.000000 0.000000 0.000000 0.000000 0.000000 0.000000 0.000000 0.000000 0.000000 0.000000 0.000000 0.000000 0.000000 0.000000 0.000000 0.000000 0.000000 0.000000 0.000000 0.000000 0.000000 0.000000 0.000000 0.000000 0.000000 0.000000 0.000000 0.000000 0.000000 0.000000 0.000000 0.000000 0.000000 0.000000 0.000000 0.000000 0.000000 0.000000 0.000000 0.000000 0.000000 0.000000 0.000000 0.000000 0.000000 0.000000 0.000000 0.000000 0.000000 0.000000 0.000000 0.000000 0.000000 0.000000 0.000000 0.000000 0.000000 0.000000 0.000000 0.000000 0.000000 0.000000 0.000000 0.000000 0.000000 0.000000 0.000000 0.000000 0.000000 0.000000 0.000000 0.000000 0.000000 0.000000 0.000000 0.000000 0.000000 0.000000 0.000000 0.000000 0.000000 0.000000 0.000000 0.000000 0.000000 0.000000 0.000000 0.000000 0.000000 0.000000 0.000000 0.000000 0.000000 0.000000 0.000000 0.000000 0.000000 0.000000 0.000000 0.000000 0.000000 0.000000 0.000000 0.000000 0.000000 0.000000 0.000000 0.000000 0.000000 0.000000 0.000000 0.000000 0.000000 0.000000 0.000000 0.000000 0.000000 0.000000 0.000000 0.000000 0.000000 0.000000 0.000000 0.000000 0.000000 0.000000 0.000000
-5.093567 97.174255 -1.606072 1.217298 -3.412606 -0.412229 178.946884 173.740707 179.473450 179.331726 -179.829605 -177.991531 0.499531 -3.560605 -4.968296 179.150757 174.011612 179.480423 0.236068 2.684694 2.291173 178.777298 -175.958588 178.523941 179.953079 174.631073 179.934387 179.953262 174.734344 179.893906 179.798065 176.180664 179.842758 180.000000 -176.449890 -179.672699 180.000000 -175.858185 -179.661011 172.154297 -176.999619 -179.383072 2.955621 1.616710 2.001434 10.251166 -10.390821 85.900887 0.499564 -2.631683 0.086001 173.696548 -178.215637 172.714294 51.833286 41.392044 8.652323 180.000000 -179.999985 -173.189575 0.000005 0.000007 4.535742 0.000000 0.000000 -0.000003 14.999999 0.000001 22.240034 180.000000 180.000000 -161.803619 180.000000 180.000000 -167.262543 0.000000 0.000000 -0.000003 180.000000 179.999985 -157.032822 180.000000 -180.000000 -157.032791 180.000000 -179.999985 -164.703842 0.000000 0.000000 -0.000003 170.000000 -179.999985 -154.305450 180.000000 -179.999985 -154.305435 180.000000 -179.999985 -162.887436 0.000000 0.000000 -0.000003 160.000015 -179.999985 -161.827560 0.000000 -0.000000 27.258675 180.000000 -179.999985 -161.845734 178.809982 -179.531738 -178.422424 167.053024 -167.576340 93.988106 1.485099 -1.721457 0.767743 4.378502 -2.749185 5.127796 127.204872 130.823593 170.550049 0.000007 -0.000001 -4.785563 0.000007 -0.000002 -3.187181 0.000000 -0.000000 0.000000 165.000015 179.999985 156.783218 0.000004 -0.000000 -18.995533 0.000003 -0.000001 -13.296861 0.000000 -0.000000 0.000000 0.000007 0.000002 -24.133112 0.000005 -0.000001 -24.133133 0.000002 -0.000003 -16.072674 0.000000 -0.000000 0.000000 10.000002 -0.000000 -25.525627 0.000013 -0.000002 -25.525658 0.000004 -0.000005 -17.000076 0.000000 -0.000000 0.000000 19.999983 -0.000001 -29.994110 0.000000 0.000000 -44.991226 180.000000 180.000000 150.035812
-5.093223 97.159660 -1.597226 1.219336 -3.402206 -0.416794 178.946655 173.742493 179.475494 179.318832 -179.826416 -177.986145 0.510353 -3.564898 -4.970721 179.154312 174.014297 179.487625 0.232732 2.682732 2.287087 178.772644 -175.950150 178.527756 179.949417 174.631531 179.934982 179.950470 174.734818 179.895844 179.784698 176.180984 179.844116 180.000000 -176.448395 -179.685562 180.000000 -175.856430 -179.674316 172.168732 -176.997070 -179.391495 2.969621 1.630128 2.005997 10.239409 -10.410676 85.901741 0.494511 -2.644270 0.083713 173.700119 -178.214752 172.703323 51.861355 41.398144 8.681466 0.000004 0.000012 6.809034 179.999985 -179.999985 -175.465164 0.000000 0.000001 0.000003 15.000000 0.000001 22.252632 180.000000 180.000000 -161.793320 180.000000 180.000000 -167.255325 0.000000 0.000001 0.000003 180.000000 180.000000 -157.017456 180.000000 -180.000000 -157.017456 180.000000 -179.999985 -164.693649 0.000000 0.000001 0.000003 170.000000 179.999985 -154.297028 180.000000 180.000000 -154.297043 0.000002 0.000001 17.118174 0.000000 0.000001 0.000003 160.000000 179.999985 -161.820007 0.000006 0.000002 27.269970 0.000000 -0.000000 18.161800 178.822968 -179.549042 -178.442688 167.066360 -167.569992 94.005371 1.487358 -1.726892 0.768449 4.365071 -2.753301 5.138049 127.223175 130.830490 170.564316 0.000011 -0.000010 -4.789443 180.000000 -179.999985 176.810211 0.000001 -0.000000 0.000000 165.000015 180.000000 156.757660 0.000003 -0.000005 -19.016487 0.000003 -0.000004 -13.311523 0.000001 -0.000000 0.000000 0.000004 -0.000001 -24.152050 0.000005 0.000000 -24.151999 0.000004 -0.000002 -16.085260 0.000001 -0.000000 0.000000 10.000001 0.000002 -25.572052 0.000002 -0.000001 -25.572048 0.000006 -0.000003 -17.030977 0.000001 -0.000000 0.000000 19.999994 -0.000001 -29.990725 0.000001 -0.000002 -44.986076 180.000000 179.999985 150.039246
-5.092220 97.155418 -1.589756 1.220918 -3.391737 -0.421446 178.944336 173.745117 179.478867 179.314377 -179.822342 -177.985626 0.516834 -3.570110 -4.967530 179.156265 174.021164 179.494507 0.231441 2.686371 2.283435 178.767136 -175.942307 178.531738 179.946487 174.631592 179.936157 179.948212 174.734879 179.898224 179.773697 176.181122 179.846268 0.000000 -3.557193 0.295965 0.000000 -4.150035 0.306536 172.172653 -176.990662 -179.402328 2.982297 1.639275 2.004977 10.227665 -10.426196 85.902596 0.487985 -2.658814 0.090422 173.706436 -178.214813 172.689453 51.853367 41.393372 8.677615 0.000004 0.000003 6.812514 0.000000 0.000007 4.537138 0.000000 -0.000000 0.000000 15.000010 -0.000002 22.258703 180.000000 180.000000 -161.788361 180.000000 180.000000 -167.251846 0.000000 -0.000000 0.000000 180.000000 179.999985 -157.007355 180.000000 -180.000000 -157.007401 180.000000 180.000000 -164.686920 0.000000 -0.000000 0.000000 170.000000 -179.999985 -154.290375 180.000000 179.999985 -154.290375 180.000000 180.000000 -162.877411 0.000000 -0.000000 0.000000 160.000000 -179.999985 -161.824600 180.000000 180.000000 -152.736893 0.000004 0.000006 18.157232 178.831314 -179.563202 -178.462753 167.087296 -167.563232 94.024017 1.489718 -1.730334 0.764322 4.352348 -2.754612 5.144699 127.208969 130.842209 170.558365 179.999985 179.999985 175.212402 0.000007 -0.000003 -3.188529 0.000000 0.000000 -0.000003 165.000015 -180.000000 156.743149 180.000000 -180.000000 160.971664 180.000000 180.000000 166.680145 0.000000 0.000000 -0.000003 0.000002 -0.000001 -24.171030 0.000003 -0.000001 -24.171009 0.000002 -0.000001 -16.097906 0.000000 0.000000 -0.000003 10.000003 -0.000003 -25.585791 0.000003 -0.000004 -25.585787 0.000002 -0.000001 -17.040138 0.000000 0.000000 -0.000003 20.000004 0.000004 -29.983526 0.000001 -0.000003 -44.975224 0.000001 -0.000001 -29.953522
